{"title":"Everybody.Loves.Hypnotoad.3H312.Amazon.Adventure.NTSC.DVDRip.x26","uid":11559497,"size":61008863,"categoryP":"video","categoryS":"tv_shows","magnet":"?xt=urn:btih:2e555a93c9a59a9facbaaeb13fcb655d2306155c&amp;dn=Everybody.Loves.Hypnotoad.3H312.Amazon.Adventure.NTSC.DVDRip.x26&amp;tr=udp%3A%2F%2Ftracker.openbittorrent.com%3A80&amp;tr=udp%3A%2F%2Fopen.demonii.com%3A1337&amp;tr=udp%3A%2F%2Ftracker.coppersurfer.tk%3A6969&amp;tr=udp%3A%2F%2Fexodus.desync.com%3A6969","seeders":2,"leechers":0,"uploader":"sounddd","files":2,"time":1416865726,"description":"NTSC DVDRip this time around. PAL was 23.976 fps blended to 25, and I did not use Restore24(). Managed to find an NTSC DVDR though, so need for that on this one, just a simple IVTC.\n\nThis is a small special released on the DVD of &quot;Bender's Big Score&quot;.\n\nMediaInfo:\n\nComplete name                            : Everybody.Loves.Hypnotoad.3H312.Amazon.Adventure.NTSC.DVDRip.x264.mkv\nFormat                                   : Matroska\nFormat version                           : Version 2\nFile size                                : 58.2 MiB\nDuration                                 : 22mn 1s\nOverall bit rate                         : 369 Kbps\nEncoded date                             : UTC 2014-11-20 13:30:37\nWriting application                      : mkvmerge v5.8.0 ('No Sleep / Pillow') built on Sep  2 2012 15:37:04\nWriting library                          : Lavf55.33.100\n\nVideo\nID                                       : 1\nFormat                                   : AVC\nFormat/Info                              : Advanced Video Codec\nFormat profile                           : &lt;a class=&quot;__cf_email__&quot; href=&quot;/cdn-cgi/l/email-protection&quot; data-cfemail=&quot;256d4c424d6569160b15&quot;&gt;[email&amp;#160;protected]&lt;/a&gt;&lt;script cf-hash='f9e31' type=&quot;text/javascript&quot;&gt;\n/* &lt;![CDATA[ */!function(){try{var t=&quot;currentScript&quot;in document?document.currentScript:function(){for(var t=document.getElementsByTagName(&quot;script&quot;),e=t.length;e--;)if(t[e].getAttribute(&quot;cf-hash&quot;))return t[e]}();if(t&amp;&amp;t.previousSibling){var e,r,n,i,c=t.previousSibling,a=c.getAttribute(&quot;data-cfemail&quot;);if(a){for(e=&quot;&quot;,r=parseInt(a.substr(0,2),16),n=2;a.length-n;n+=2)i=parseInt(a.substr(n,2),16)^r,e+=String.fromCharCode(i);e=document.createTextNode(e),c.parentNode.replaceChild(e,c)}}}catch(u){}}();/* ]]&gt; */&lt;/script&gt;\nFormat settings, CABAC                   : Yes\nFormat settings, ReFrames                : 4 frames\nMuxing mode                              : Header stripping\nCodec ID                                 : V_MPEG4/ISO/AVC\nDuration                                 : 22mn 1s\nBit rate                                 : 170 Kbps\nWidth                                    : 720 pixels\nHeight                                   : 404 pixels\nDisplay aspect ratio                     : 16:9\nFrame rate mode                          : Constant\nFrame rate                               : 23.976 fps\nColor space                              : YUV\nChroma subsampling                       : 4:2:0\nBit depth                                : 8 bits\nScan type                                : Progressive\nBits/(Pixel*Frame)                       : 0.024\nStream size                              : 26.8 MiB (46%)\nWriting library                          : x264 core 142 r2409M d6b4e63\nEncoding settings                        : cabac=1 / ref=3 / deblock=1:0:0 / analyse=0x3:0x113 / me=hex / subme=7 / psy=1 / psy_rd=1.00:0.00 / mixed_ref=1 / me_range=16 / chroma_me=1 / trellis=1 / 8x8dct=1 / cqm=0 / deadzone=21,11 / fast_pskip=1 / chroma_qp_offset=-2 / threads=6 / lookahead_threads=1 / sliced_threads=0 / nr=0 / decimate=1 / interlaced=0 / bluray_compat=0 / constrained_intra=0 / bframes=3 / b_pyramid=2 / b_adapt=1 / b_bias=0 / direct=1 / weightb=1 / open_gop=0 / weightp=2 / keyint=250 / keyint_min=23 / scenecut=40 / intra_refresh=0 / rc_lookahead=40 / rc=crf / mbtree=1 / crf=19.0 / qcomp=0.60 / qpmin=0 / qpmax=69 / qpstep=4 / ip_ratio=1.40 / aq=1:1.00\nDefault                                  : Yes\nForced                                   : No\n\nAudio\nID                                       : 2\nFormat                                   : AC-3\nFormat/Info                              : Audio Coding 3\nMode extension                           : CM (complete main)\nFormat settings, Endianness              : Big\nMuxing mode                              : Header stripping\nCodec ID                                 : A_AC3\nDuration                                 : 22mn 1s\nBit rate mode                            : Constant\nBit rate                                 : 192 Kbps\nChannel(s)                               : 2 channels\nChannel positions                        : Front: L R\nSampling rate                            : 48.0 KHz\nBit depth                                : 16 bits\nCompression mode                         : Lossy\nStream size                              : 30.3 MiB (52%)\nDefault                                  : Yes\nForced                                   : No","torrent":{"xt":"urn:btih:2e555a93c9a59a9facbaaeb13fcb655d2306155c","amp;dn":"Everybody.Loves.Hypnotoad.3H312.Amazon.Adventure.NTSC.DVDRip.x26","amp;tr":["udp%3A%2F%2Ftracker.openbittorrent.com%3A80","udp%3A%2F%2Fopen.demonii.com%3A1337","udp%3A%2F%2Ftracker.coppersurfer.tk%3A6969","udp%3A%2F%2Fexodus.desync.com%3A6969"],"infoHash":"2e555a93c9a59a9facbaaeb13fcb655d2306155c","infoHashBuffer":{"type":"Buffer","data":[46,85,90,147,201,165,154,159,172,186,174,177,63,203,101,93,35,6,21,92]},"announce":[],"urlList":[]}}